<svg xmlns="http://www.w3.org/2000/svg" version="1.1" xmlns:xlink="http://www.w3.org/1999/xlink" xmlns:svgjs="http://svgjs.dev/svgjs" viewBox="0 0 800 800" opacity="0.67"><defs><linearGradient x1="50%" y1="0%" x2="50%" y2="100%" id="wwwhirl-grad"><stop stop-color="#865dffff" stop-opacity="1" offset="45%"></stop><stop stop-color="hsla(312, 90%, 56%, 0.25)" stop-opacity="1" offset="100%"></stop></linearGradient></defs><g stroke-width="3" stroke="url(#wwwhirl-grad)" fill="none" stroke-linecap="round"><path d="M-303.00006000372076 443.46279581919447C-284.9744183433502 429.58305174070915 -230.89749336223852 360.499780077339 -194.84621004149741 360.1843313482825C-158.79492672075628 359.868882619226 -122.74364340001515 445.98638565164634 -86.69236007927407 441.5701034448556C-50.641076758532904 437.1538212380648 -14.589793437791798 334.6329842947072 21.46148988294931 333.68663810753776C57.51277320369036 332.7402919203683 93.56405652443158 431.4757441150481 129.61533984517263 435.89202632183884C165.66662316591373 440.3083085286296 201.7179064866549 355.13715168337876 237.76918980739606 360.1843313482825C273.8204731281371 365.23151101318626 309.87175644887816 462.07427083352707 345.9230397696193 466.1751043112614C381.9743230903604 470.27593778899563 418.02560641110165 386.05112713091427 454.0768897318427 384.78933221468833C490.12817305258386 383.52753729846233 526.179456373325 459.5506810010752 562.2307396940661 458.6043348139057C598.2820230148072 457.6579886267363 634.3333063355483 377.84946017544564 670.3845896562893 379.1112550916716C706.4358729770304 380.3730500078975 742.4871562977717 468.6986941437133 778.5384396185127 466.1751043112614C814.5897229392538 463.6515144788095 850.641006259995 366.4933059294122 886.6922895807361 363.9697160969603C922.7435729014774 361.44612626450845 958.7948562222184 443.46279581919447 994.8461395429595 451.0335653165501C1030.8974228637005 458.6043348139057 1084.9743478448122 416.3342051203368 1102.9999895051828 409.39433308109415 " transform="rotate(66.5, 400, 400)"></path><path d="M-284.5000600308638 442.3190395904737C-266.9487773615556 428.8045519351065 -214.29492935363112 361.53926110498287 -179.19236401501473 361.23211365827C-144.0897986763984 360.9249662115571 -108.98723333778202 444.7762191641769 -73.88466799916569 440.4761549101964C-38.782102660549356 436.1760906562159 -3.679537321932969 336.35317047452565 31.42302801668336 335.43172813438696C66.52559335529969 334.5102857942483 101.62815869391608 430.6474366153838 136.7307240325324 434.9475008693643C171.8332893711488 439.2475651233448 206.93585470976518 356.3177545108637 242.03842004838157 361.23211365827C277.14098538699784 366.1464728056763 312.2435507256141 460.44073894653445 347.3461160642305 464.43365575380204C382.4486814028468 468.42657256106963 417.5512467414633 386.4182042887272 452.65381208007955 385.18961450187567C487.7563774186958 383.96102471502405 522.8589427573123 457.9835593728313 557.9615080959287 457.06211703269264C593.064073434545 456.14067469255394 628.1666387731614 378.432370674192 663.2692041117776 379.6609604610436C698.3717694503939 380.88955024789516 733.4743347890103 466.8908353275052 768.5769001276267 464.43365575380204C803.6794654662428 461.97647618009887 838.7820308048595 367.37506259252785 873.8845961434758 364.9178830188247C908.9871614820922 362.46070344512157 944.0897268207084 442.3190395904737 979.1922921593248 449.6905783115832C1014.2948574979412 457.06211703269264 1066.9487055058655 415.90435917316495 1084.4999881751737 409.1471153454813 " transform="rotate(64.75, 400, 400)"></path><path d="M-266.00006005800685 441.1752814544044C-248.92313637976105 428.02605022215516 -197.69236534502366 362.5787402252782 -163.53851798853208 362.2798940609089C-129.3846706320405 361.98104789653956 -95.23082327554889 443.56605076935887 -61.076975919057304 439.3822044681886C-26.923128562565807 435.1983581670184 7.23071879392586 338.07335474699545 41.38456615041741 337.1768162538875C75.53841350690897 336.28027776077965 109.69226086340058 429.819127208371 143.8461082198922 434.0029735095412C177.99995557638374 438.1868198107114 212.15380293287535 357.49835543100005 246.30765028936696 362.2798940609089C280.46149764585857 367.0614326908177 314.61534500235007 458.8072051521932 348.7691923588417 462.69220528899416C382.9230397153333 466.577205425795 417.0768870718249 386.7852795391916 451.2307344283165 385.5898948817144C485.384581784808 384.39451022423714 519.5384291412997 456.4164358372388 553.6922764977912 455.51989734413087C587.8461238542827 454.623358851023 621.9999712107744 379.01527926558975 656.153818567266 380.21066392306693C690.3076659237574 381.40604858054417 724.4615132802492 465.0829746039485 758.6153606367407 462.69220528899416C792.7692079932322 460.3014359740397 826.9230553497239 368.2568173482949 861.0769027062154 365.86604803334046C895.2307500627071 363.47527871838605 929.3845974191986 441.1752814544044 963.5384447756901 448.34758939926763C997.6922921321816 455.51989734413087 1048.923063166919 415.47451131864455 1065.9999868451648 408.89989570251987 " transform="rotate(63, 400, 400)"></path><path d="M-247.50006008514987 440.0315252256837C-230.89749539796645 427.2475504165525 -181.08980133641626 363.61822125292207 -147.88467196204942 363.32767637089637C-114.67954258768259 363.03713148887067 -81.47441321331576 442.3558842818894 -48.26928383894892 438.28825593352946C-15.064154464582145 434.2206275851695 18.14097490978469 339.7935409268139 51.34610428415152 338.9219062807368C84.5512336585183 338.0502716346596 117.75636303288513 428.99081970870674 150.9614924072519 433.0584480570667C184.16662178161874 437.1260764054266 217.37175115598552 358.678958258485 250.57688053035247 363.32767637089637C283.7820099047192 367.97639448330773 316.987139279086 457.1736732652006 350.19226865345286 460.9507567315348C383.3973980278196 464.727840197869 416.6025274021865 387.15235669700456 449.80765677655336 385.9901771689017C483.0127861509201 384.82799764079886 516.2179155252869 454.8493142089949 549.4230448996539 453.9776795629178C582.6281742740207 453.10604491684063 615.8333036483874 379.5981897643361 649.0384330227541 380.76036929243895C682.243562397121 381.9225488205418 715.4486917714878 463.2751157877405 748.6538211458546 460.9507567315348C781.8589505202215 458.62639767532914 815.0640798945885 369.1385740114106 848.2692092689551 366.8142149552049C881.474338643322 364.4898558989992 914.6794680176888 440.0315252256837 947.8845973920554 447.0046023943007C981.0897267664225 453.9776795629178 1030.8974208279726 415.04466537147266 1047.499985515156 408.65267796690705 " transform="rotate(61.25, 400, 400)"></path><path d="M-229.0000601122929 438.8877670896144C-212.87185441617189 426.4690487036012 -164.48723732780883 364.6577003732174 -132.23082593556677 364.37545677353523C-99.97441454332471 364.09321317385314 -67.7180031510826 441.14571588707133 -35.4615917588406 437.1943054915217C-3.2051803665985403 433.242895095972 29.051231025643517 341.51372519928367 61.307642417885575 340.66699440023734C93.56405381012758 339.82026360119096 125.82046520236969 428.1625103016939 158.0768765946117 432.11392069724354C190.33328798685375 436.0653310927932 222.58969937909586 359.85955917862134 254.84611077133786 364.37545677353523C287.1025221635799 368.89135436844913 319.358933555822 455.54013947085934 351.61534494806403 459.20930626672686C383.871756340306 462.87847306259437 416.12816773254815 387.5194319474689 448.3845791247902 386.3904575487404C480.64099051703215 385.26148315001194 512.8974019092743 453.2821906734024 545.1538133015164 452.435459874356C577.4102246937584 451.5887290753097 609.6666360860004 380.18109835573387 641.9230474782424 381.31007275446234C674.1794588704844 382.4390471531908 706.4358702627266 461.4672550641838 738.6922816549686 459.20930626672686C770.9486930472108 456.9513574692699 803.2051044394527 370.0203287671776 835.4615158316949 367.76237996972066C867.7179272239368 365.5044311722637 899.974338616179 438.8877670896144 932.230750008421 445.6616134819852C964.4871614006631 452.435459874356 1012.8717784890259 414.61481751695226 1028.999984185147 408.40545832394565 " transform="rotate(59.5, 400, 400)"></path><path d="M-210.50006013943596 437.74400704619643C-194.84621343437732 425.69054508330123 -147.8846733192014 365.697177586164 -116.57697990908412 365.42323526882547C-85.2692864989668 365.1492929514869 -53.9615930888495 439.9355455849046 -22.653899678732216 436.10035314216526C8.653793731385008 432.2651606994259 39.961487141502346 343.23390756440483 71.26918055161963 342.4120806123893C102.57687396173685 341.5902536603737 133.8845673718542 427.3341989873324 165.1922607819714 431.16939143007176C196.49995419208875 435.00458387281117 227.8076476022061 361.04015819140903 259.11534101232337 365.42323526882547C290.42303442244065 369.8063123462419 321.73072783255793 453.90660376916946 353.0384212426752 457.4678538945703C384.3461146527924 461.0291040199711 415.6538080629098 387.88650529058464 446.96150147302706 386.79073602123054C478.26919488314434 385.6949667518764 509.5768882932616 451.7150652304612 540.8845817033789 450.89323827844566C572.1922751134962 450.07141132643005 603.4999685236135 380.76400503978294 634.8076619337306 381.85977430913704C666.1153553438479 382.9555435784912 697.4230487539653 459.6593924332785 728.7307421640826 457.4678538945703C760.0384355741999 455.27631535586204 791.3461289843171 370.902081615596 822.6538223944347 368.7105430768878C853.9615158045517 366.51900453817956 885.269209214669 437.74400704619643 916.5769026247863 444.31862266232105C947.8845960349036 450.89323827844566 994.8461361500795 414.18496775508316 1010.4999828551381 408.15823677363556 " transform="rotate(57.75, 400, 400)"></path><path d="M-192.00006016657898 436.60024891012705C-176.82057245258272 424.9120433703499 -131.28210931059397 366.73665670645926 -100.92313388260143 366.47101567146433C-70.5641584546089 366.2053746364694 -40.20518302661637 438.72537719008653 -9.846207598623863 435.0064027001574C20.512767829368613 431.28742821022837 50.871743257361175 344.9540918368746 81.23071868535368 344.15716873188984C111.58969411334618 343.36024562690505 141.9486695413387 426.50588958031955 172.30764496933125 430.22486407024866C202.6666203973237 433.9438385601777 233.02559582531626 362.2207591115454 263.3845712533089 366.47101567146433C293.74354668130127 370.7212722313833 324.1025221092938 452.2730699748282 354.4614975372863 455.72640342976234C384.8204729652788 459.17973688469647 415.1794483932714 388.25358054104896 445.5384238212639 387.19101640106925C475.8973992492564 386.1284522610895 506.256374677249 450.14794169486873 536.6153501052415 449.3510185898839C566.974325533234 448.5540954848991 597.3333009612265 381.34691363118066 627.692276389219 382.4094777711604C658.0512518172116 383.47204191114014 688.4102272452039 457.8515317097218 718.7692026731964 455.72640342976234C749.128178101189 453.60127514980286 779.4871535291818 371.783836371363 809.8461289571742 369.6587080914036C840.2051043851666 367.5335798114441 870.5640798131592 436.60024891012705 900.9230552411516 442.9756337500055C931.2820306691442 449.3510185898839 976.820493811133 413.7551199005627 991.9999815251292 407.9110171306741 " transform="rotate(56, 400, 400)"></path><path d="M-173.50006019372202 435.45649268140636C-158.79493147078816 424.1335435647473 -114.67954530198652 367.7761377341032 -85.26928785611878 367.5187979814518C-55.85903041025102 367.2614582288005 -26.448772964383238 437.5152107026171 2.96148448148449 433.9124541654983C32.37174192735222 430.3096976283795 61.78199937322006 346.67427801669305 91.19225681908773 345.90225875873904C120.60251426495552 345.130239500785 150.01277171082324 425.6775820806553 179.42302915669103 429.28033861777413C208.8332866025587 432.88309515489294 238.24354404842654 363.4013619390304 267.65380149429427 367.5187979814518C297.0640589401621 371.6362340238733 326.4743163860297 450.6395380878356 355.88457383189746 453.98495487230304C385.2948312777653 457.33037165677047 414.70508872363314 388.620657698862 444.11534616950075 387.5912986882566C473.5256036153685 386.5619396776512 502.9358610612363 448.5808200666248 532.346118507104 447.8088008086708C561.7563759529718 447.0367815507168 591.1666333988396 381.92982412992706 620.5768908447073 382.95918314053245C649.9871482905751 383.9885421511378 679.3974057364427 456.0436728935138 708.8076631823104 453.98495487230304C738.2179206281783 451.9262368510923 767.6281780740461 372.6655930344787 797.038435519914 370.606875013268C826.4486929657817 368.5481569920572 855.8589504116494 435.45649268140636 885.2692078575169 441.6326467450386C914.6794653033849 447.8088008086708 958.7948514721866 413.3252739533909 973.4999801951203 407.66379939506135 " transform="rotate(54.25, 400, 400)"></path><path d="M-155.00006022086507 434.31273454533704C-140.7692904889936 423.355041851796 -98.0769812933791 368.81561685439846 -69.6154418296361 368.5665783840907C-41.15390236589312 368.317539913783 -12.692362902150109 436.305042307799 15.769176561592872 432.8185037234905C44.23071602533582 429.331965139182 72.69225548907889 348.3944622891629 101.15379495282184 347.6473468782396C129.6153344165648 346.90023146731636 158.0768738803078 424.8492726736425 186.53841334405075 428.335811257951C214.9999528077937 431.8223498422595 243.46149227153677 364.5819628591667 271.9230317352797 368.5665783840907C300.38457119902273 372.5511939090147 328.8461106627657 449.00600429349436 357.30765012650863 452.2435044074951C385.7691895902517 455.48100452149583 414.23072905399465 388.9877329493263 442.6922685177377 387.9915790680953C471.15380798148067 386.9954251868643 499.61534744522373 447.01369653103234 528.0768869089667 446.2665811201091C556.5384263727095 445.51946570918585 584.9999658364526 382.51273272132477 613.4615053001955 383.5088866025558C641.9230447639386 384.5050404837868 670.3845842276814 454.2358121699571 698.8461236914244 452.2435044074951C727.3076631551675 450.2511966450331 755.7692026189106 373.54734779024574 784.2307420826535 371.5550400277837C812.6922815463963 369.5627322653217 841.1538210101394 434.31273454533704 869.6153604738824 440.28965783272304C898.0768999376253 446.2665811201091 940.7692091332399 412.8954260988704 954.9999788651114 407.4165797520999 " transform="rotate(52.5, 400, 400)"></path><path d="M-136.5000602480081 433.168974501919C-122.743649507199 422.57653823149604 -81.47441728477168 369.85509406734514 -53.96159580315344 369.614356879381C-26.44877432153521 369.3736196914168 1.064047160083021 435.0948720056323 28.576868641701225 431.7245513741341C56.08969012331943 428.3542307426359 83.60251160493766 350.11464465428406 111.11533308655589 349.3924330903916C138.62815456817407 348.67022152649906 166.1409760497923 424.020961359281 193.65379753141053 427.39128199077925C221.1666190130287 430.76160262227745 248.67944049464705 365.7625618719544 276.19226197626523 369.614356879381C303.7050834578834 373.4661518868075 331.21790493950164 447.3724685918045 358.7307264211198 450.5020520353385C386.243547902738 453.63163547887257 413.7563693843564 389.35480629244205 441.26919086597456 388.3918575405854C468.78201234759274 387.42890878872873 496.29483382921103 445.44657108809116 523.8076553108292 444.7243595241987C551.3204767924474 444.0021479603062 578.8332982740656 383.0956394053739 606.3461197556838 384.05858815723053C633.8589412373021 385.02153690908716 661.3717627189202 452.42794953905184 688.8845842005385 450.5020520353385C716.3974056821567 448.5761545316252 743.910227163775 374.4291006386641 771.4230486453932 372.50320313495087C798.9358701270115 370.5773056312376 826.4486916086296 433.168974501919 853.961513090248 438.94666701305886C881.4743345718662 444.7243595241987 922.7435667942934 412.4655763370013 936.4999775351025 407.1693582017898 " transform="rotate(50.75, 400, 400)"></path><path d="M-118.00006027515116 432.0252163658497C-104.71800852540441 421.79803651854473 -64.87185327616425 370.8945731876404 -38.30774977667079 370.66213728201984C-11.743646277177334 370.42970137639924 14.82045722231615 433.88470361081426 41.38456072180958 430.6306009321263C67.94866422130303 427.37649825343834 94.51276772079649 351.83482892675386 121.07687122028995 351.13752120989216C147.6409747197834 350.44021349303046 174.20507821927686 423.19265195226814 200.7691817187703 426.4467546309561C227.33328521826377 429.70085730964405 253.89738871775722 366.94316279209073 280.46149221725074 370.66213728201984C307.02559571674414 374.3811117719489 333.5896992162376 445.73893479746323 360.153802715731 448.7606015705306C386.7179062152245 451.78226834359793 413.2820097147179 389.7218815429064 439.8461132142114 388.7921379204241C466.4102167137048 387.8623942979418 492.9743202131983 443.8794475524987 519.5384237126918 443.182139835637C546.1025272121852 442.4848321187753 572.6666307116786 383.6785479967716 599.230734211172 384.6082916192539C625.7948377106655 385.53803524173617 652.358941210159 450.62008881549514 678.9230447096525 448.7606015705306C705.4871482091457 446.901114325566 732.0512517086395 375.3108553944312 758.615355208133 373.45136814946665C785.1794587076263 371.5918809045021 811.7435622071198 432.0252163658497 838.3076657066132 437.6036781007433C864.8717692061068 443.182139835637 904.7179244553467 412.03572848248086 917.9999762050936 406.9221385588284 " transform="rotate(49, 400, 400)"></path><path d="M-99.50002978471606 430.8814639518263C-86.69233702603171 421.0195405276393 -48.26925874997869 371.93405802998154 -22.65387323261001 371.7099234067046C2.9615122847586974 371.4857887834276 28.576897802127405 432.67454093804207 54.192283319496084 429.5366562121644C79.80766883686474 426.39877148628676 105.4230543542335 353.55501892126955 131.03843987160212 352.8826150514386C156.6538253889708 352.2102111816077 182.26921090633954 422.3643482673012 207.88459642370822 425.50223299317884C233.49998194107684 428.64011771905655 259.1153674584456 368.12376943427296 284.73075297581426 371.7099234067046C310.34613849318293 375.2960773791362 335.9615240105516 444.1054067251679 361.5769095279203 447.01915682776854C387.19229504528903 449.9329069303692 412.80768056265777 390.08896251541665 438.4230660800264 389.1924240223087C464.0384515973951 388.2958855292008 489.65383711476386 442.31232973895203 515.2692226321325 441.63992586912116C540.8846081495012 440.96752199929017 566.4999936668698 384.2614623102153 592.1153791842386 385.15800080332315C617.7307647016072 386.0545392964311 643.3461502189758 448.81223381398434 668.9615357363446 447.01915682776854C694.5769212537132 445.22607984155275 720.192306771082 376.1926158722441 745.8076922884507 374.3995388860283C771.4230778058194 372.60646189981253 797.038463323188 430.8814639518263 822.6538488405567 436.2606949104737C848.2692343579254 441.63992586912116 886.6923126339784 411.60588635000636 899.5000053926628 406.67492463791285 " transform="rotate(47.25, 400, 400)"></path><path d="M-80.99999929428097 429.73770581575695C-68.66666552665902 420.241038814688 -31.666664223793134 372.97353715027685 -6.999996688549203 372.75770380934347C17.66667084669473 372.5418704684101 42.33333838193866 431.464372543224 67.00000591718256 428.44270577015664C91.66667345242647 425.4210389970892 116.33334098767043 355.27520319373934 141.0000085229143 354.6277031709392C165.66667605815826 353.980203148139 190.33334359340216 421.53603886028833 215.00001112864607 424.5577056333557C239.66667866388997 427.5793724064231 264.333346199134 369.30437035440934 289.0000137343779 372.75770380934347C313.66668126962173 376.2110372642776 338.3333488048657 442.47187293082663 363.0000163401096 445.2777063629606C387.66668387535356 448.08353979509457 412.3333514105975 390.456037765881 437.00001894584136 389.59270440214743C461.6666864810853 388.7293710384139 486.3333540163293 440.74520620335954 511.00002155157324 440.0977061805594C535.6666890868171 439.4502061577592 560.333356622061 384.844370901613 585.0000241573049 385.70770426534654C609.6666916925489 386.5710376290801 634.3333592277927 447.0043730904277 659.0000267630367 445.2777063629606C683.6666942982805 443.5510396354935 708.3333618335246 377.07437062801114 733.0000293687685 375.34770390054405C757.6666969040124 373.621037173077 782.3333644392562 429.73770581575695 807.0000319745002 434.9177059981581C831.666699509744 440.0977061805594 868.66670081261 411.1760384954859 881.000034580232 406.4277049949514 " transform="rotate(45.5, 400, 400)"></path><path d="M-62.49999932142401 428.5939419576417C-50.641024544864436 419.4625313796908 -15.064100215185704 374.0130105485262 8.653849337933451 373.80547848993643C32.371798891052606 373.59794643134666 56.08974844417179 430.25419842636006 79.80769799729092 427.34874960610296C103.52564755041007 424.44330078584585 127.24359710352923 356.99538174416324 150.9615466566484 356.37278556839385C174.67949620976754 355.75018939262446 198.39744576288672 420.7077237312296 222.11539531600584 423.6131725514866C245.83334486912497 426.51862137174373 269.5512944222442 370.4849655524998 293.26924397536334 373.80547848993643C316.9871935284825 377.1259914273731 340.7051430816016 440.8383334144395 364.4230926347208 443.53625017610676C388.14104218783996 446.23416693777403 411.858991740959 390.82310729429946 435.5769412940783 389.99297905994024C459.2948908471974 389.1628508255811 483.0128404003166 439.1780769457211 506.73078995343576 438.5554807699517C530.448739506555 437.9328845941824 554.1666890596741 385.4272737709648 577.8846386127932 386.257402005324C601.6025881659124 387.0875302396832 625.3205377190314 445.1965066448251 649.0384872721505 443.53625017610676C672.7564368252698 441.8759937073884 696.474386378389 377.95611966173226 720.1923359315082 376.29586319301393C743.9102854846274 374.6356067242956 767.6282350377464 428.5939419576417 791.3461845908656 433.5747113637967C815.0641341439847 438.5554807699517 850.6410584736634 410.74618491891954 862.500033250223 406.1804796299441 " transform="rotate(43.75, 400, 400)"></path><path d="M-43.99999934856706 427.4501876362696C-32.615383563069855 418.6840334814368 1.5384637934217267 375.0524934835188 24.307695364416105 374.85326270727256C47.07692693541051 374.6540319310264 69.84615850640492 429.04403384623924 92.6153900773993 426.25480297879244C115.38462164839368 423.4655721113456 138.15385321938805 358.7155698313303 160.92308479038246 358.1178775025917C183.6923163613768 357.5201851738531 206.46154793237122 419.879418138914 229.23077950336557 422.6686490063608C252.00001107435997 425.4578798738076 274.76924264535444 371.66557028733337 297.53847421634885 374.85326270727256C320.30770578734314 378.04095512721176 343.0769373583376 439.2048034347955 365.84616892933195 441.7948035259961C388.6154005003263 444.38480361719667 411.38463207132077 391.19018635946105 434.1538636423152 390.39326325447627C456.92309521330947 389.5963401494914 479.692326784304 437.6109572248258 502.4615583552983 437.01326489608726C525.2307899262927 436.41557256734865 548.0000214972871 386.01018617705984 570.7692530682814 386.8071092820446C593.5384846392758 387.6040323870294 616.3077162102702 443.3886497359657 639.0769477812646 441.7948035259961C661.846179352259 440.20095731602646 684.6154109232535 378.8378782321966 707.3846424942478 377.244032022227C730.1538740652422 375.6501858122574 752.9231056362365 427.4501876362696 775.6923372072309 432.23172626617844C798.4615687782255 437.01326489608726 832.615416134717 410.31634087909634 844.000031920214 405.9332638016799 " transform="rotate(42, 400, 400)"></path><path d="M-25.499999375710097 426.3064295002003C-14.589742581275289 417.9055317684855 18.141027802029157 376.09197260381404 39.96154139089877 375.9010431099114C61.78205497976842 375.7101136160088 83.60256856863805 427.83386545142116 105.42308215750765 425.1608525367846C127.24359574637728 422.4878396221481 149.0641093352469 360.4357541038001 170.88462292411648 359.86296562209225C192.7051365129861 359.29017714038446 214.52565010185572 419.05110873190114 236.3461636907254 421.72412164653764C258.166677279595 424.3971345611742 279.98719086846467 372.8461712074697 301.8077044573343 375.9010431099114C323.62821804620387 378.9559150123532 345.4487316350735 437.57126964045426 367.2692452239431 440.05335306118815C389.0897588128127 442.53543648192203 410.9102724016824 391.5572616099254 432.730785990552 390.793543634315C454.55129957942165 390.0298256587045 476.3718131682913 436.04383368923334 498.1923267571609 435.47104520752555C520.0128403460304 434.8982567258177 541.8333539349001 386.59309476845755 563.6538675237697 387.356812744068C585.4743811126393 388.1205307196784 607.294894701509 441.580789012409 629.1154082903785 440.05335306118815C650.9359218792482 438.5259171099673 672.7564354681178 379.7196329879636 694.5769490569875 378.19219703674275C716.3974626458571 376.6647610855219 738.2179762347268 426.3064295002003 760.0384898235964 430.8887373538629C781.859003412466 435.47104520752555 814.5897737957704 409.8864930245759 825.5000305902051 405.68604415871846 " transform="rotate(40.25, 400, 400)"></path><path d="M-6.999999402853135 425.16267327147955C3.4358984005192923 417.1270319628828 34.74359181063659 377.131453631458 55.61538741738144 376.9488254198989C76.4871830241263 376.7661972083399 97.35897863087118 426.6236989639517 118.230774237616 424.06690400212545C139.10256984436086 421.5101090402992 159.97436545110574 362.1559402836185 180.8461610578506 361.6080556489415C201.71795666459542 361.0601710142644 222.58975227134033 418.2228012322369 243.46154787808518 420.7795961940632C264.33334348483 423.3363911558894 285.2051390915749 374.02677403495466 306.07693469831975 376.9488254198989C326.9487303050646 379.87087680484325 347.82052591180945 435.9377377534616 368.69232151855425 438.31190450372884C389.5641171252991 440.68607125399603 410.435912732044 391.9243387677384 431.30770833878887 391.1938259215023C452.1795039455337 390.4633130752662 473.0512995522786 434.4767120609895 493.92309515902343 433.9288274263124C514.7948907657683 433.38094279163533 535.6666863725131 387.17600526720395 556.538481979258 387.90651811344C577.4102775860028 388.63703095967605 598.2820731927477 439.77293019620095 619.1538687994926 438.31190450372884C640.0256644062374 436.8508788112567 660.8974600129824 380.6013896510793 681.7692556197272 379.14036395860717C702.6410512264721 377.679338266135 723.5128468332169 425.16267327147955 744.3846424399617 429.545750348896C765.2564380467065 433.9288274263124 796.5641314568238 409.45664707740406 807.0000292601962 405.4388264231057 " transform="rotate(38.5, 400, 400)"></path><path d="M11.500000570003827 424.0189132280616C21.461539382313873 416.3485283425829 51.34615581924402 378.1709308444046 71.2692334438641 377.9966039151892C91.19231106848417 377.82227698597376 111.11538869310431 425.413528661785 131.03846631772439 422.97295165276904C150.96154394234446 420.5323746437531 170.88462156696457 363.8761226487397 190.80769919158462 363.35314186109343C210.73077681620475 362.83016107344713 230.65385444082483 417.39448991787543 250.5769320654449 419.8350669268914C270.500009690065 422.27564393590734 290.4230873146851 375.20737304774235 310.3461649393052 377.9966039151892C330.2692425639253 380.785834782636 350.19232018854535 434.3042020517717 370.11539781316543 436.57045213157227C390.0384754377855 438.83670221137277 409.96155306240564 392.2914121108541 429.8846306870257 391.5941043939924C449.8077083116458 390.8967966771307 469.730785936266 432.9095866180483 489.65386356088607 432.386605830402C509.57694118550614 431.86362504275576 529.5000188101261 387.758911951253 549.4230964347463 388.4562196681147C569.3461740593664 389.1535273849764 589.2692516839865 437.96506756529567 609.1923293086065 436.57045213157227C629.1154069332266 435.1758366978488 649.0384845578468 381.4831424994977 668.9615621824669 380.0885270657743C688.884639807087 378.6939116320509 708.807717431707 424.0189132280616 728.7307950563271 428.2027595292318C748.6538726809472 432.386605830402 778.5384891178772 409.02679731553496 788.5000279301873 405.1916048727956 " transform="rotate(36.75, 400, 400)"></path><path d="M30.00000054286079 422.87515509199227C39.487180364108454 415.57002662963157 67.94871982785143 379.2104099646999 86.92307947034675 379.0443843178281C105.89743911284208 378.87835867095623 124.87179875533741 424.2033602669669 143.84615839783274 421.87900121076126C162.82051804032807 419.5546421545556 181.7948776828234 365.5963069212095 200.7692373253187 365.098229980594C219.74359696781403 364.6001530399785 238.71795661030933 416.5661805108626 257.69231625280463 418.89053956706823C276.6666758953 421.21489862327394 295.64103553779535 376.38797396787874 314.61539518029065 379.0443843178281C333.58975482278595 381.7007946677774 352.5641144652813 432.67066825743046 371.5384741077766 434.8290016667643C390.51283375027197 436.98733507609813 409.48719339276727 392.65848736131846 428.4615530352626 391.99438477383114C447.43591267775787 391.33028218634377 466.4102723202533 431.34246308245577 485.3846319627486 430.8443861418403C504.3589916052439 430.3463092012248 523.3333512477393 388.3418205426508 542.3077108902345 389.0059231301381C561.2820705327298 389.67002571762544 580.2564301752252 436.157206841739 599.2307898177205 434.8290016667643C618.2051494602158 433.50079649178963 637.1795091027112 382.36489725526474 656.1538687452065 381.0366920802901C675.1282283877018 379.7084869053154 694.1025880301971 422.87515509199227 713.0769476726924 426.8597706169163C732.0513073151878 430.8443861418403 760.5128467789308 408.59694946101456 770.0000266001784 404.94438522983415 " transform="rotate(35, 400, 400)"></path><path d="M48.500000515717744 421.7314007706202C57.512821345903035 414.7915287313775 84.55128383645886 380.24989289969244 102.57692549682942 380.0921685351642C120.60256715719999 379.93444417063597 138.62820881757057 422.99319568684615 156.6538504779411 420.78505458345074C174.67949213831167 418.57691348005534 192.70513379868223 367.3164950083766 210.73077545905278 366.84332191479183C228.7564171194233 366.3701488212071 246.7820587797939 415.737874918547 264.80770044016447 417.94601602194234C282.833342100535 420.15415712533775 300.8589837609056 377.56857870271233 318.88462542127616 380.0921685351642C336.9102670816467 382.6157583676161 354.9359087420172 431.0371382777865 372.9615504023878 433.08755501665365C390.9871920627583 435.13797175552077 409.01283372312895 393.02556642648005 427.0384753834995 392.3946689683671C445.06411704387006 391.7637715102541 463.08975870424064 429.77534336156054 481.11540036461116 429.30217026797584C499.14104202498174 428.8289971743911 517.1666836853523 388.92473294874577 535.1923253457228 389.55563040685877C553.2179670060933 390.1865278649717 571.243608666464 434.3493499328796 589.2692503268345 433.08755501665365C607.294891987205 431.8257601004277 625.3205336475756 383.246655825729 643.3461753079462 381.9848609095031C661.3718169683168 380.72306599327715 679.3974586286873 421.7314007706202 697.4231002890579 425.516785519298C715.4487419494284 429.30217026797584 742.4872044399842 408.16710542119137 751.5000252701695 404.69716940157 " transform="rotate(33.25, 400, 400)"></path><path d="M67.0000004885747 420.5876407272022C75.5384623276976 414.0130251110776 101.1538478450663 381.28937011263906 118.23077152331209 381.13994703045444C135.30769520155786 380.9905239482698 152.38461887980367 421.78302538467943 169.46154255804947 419.69110223409433C186.53846623629522 417.59917908350917 203.61538991454105 369.03667737349775 220.69231359278683 368.58840812694376C237.7692372710326 368.1401388803898 254.8461609492784 414.9095636041855 271.9230846275242 417.0014867547706C289.00000830577 419.0934099053557 306.0769319840158 378.7491777155 323.1538556622616 381.13994703045444C340.2307793405074 383.53071634540885 357.30770301875316 429.4036025760966 374.38462669699896 431.3461026444971C391.46155037524477 433.2886027128975 408.5384740534906 393.3926397695958 425.6153977317364 392.7949474408572C442.6923214099821 392.19725511211857 459.769245088228 428.2082179186194 476.84616876647374 427.75994867206543C493.9230924447195 427.3116794255115 511.00001612296535 389.50763963279485 528.0769398012111 390.10533196153347C545.1538634794568 390.7030242902721 562.2307871577027 432.54148730197426 579.3077108359485 431.3461026444971C596.3846345141942 430.15071798701985 613.4615581924401 384.12840867414747 630.5384818706858 382.93302401667023C647.6154055489317 381.73763935919305 664.6923292271774 420.5876407272022 681.7692529054232 424.17379469963385C698.8461765836689 427.75994867206543 724.4615621010377 407.7372556593223 733.0000239401605 404.44994785125994 " transform="rotate(31.5, 400, 400)"></path><path d="M85.50000046143167 419.4438825911329C93.56410330949218 413.23452339812627 117.75641185367371 382.3288492329344 133.88461754979474 382.1877274330933C150.01282324591577 382.0466056332522 166.14102894203683 420.57285698986135 182.26923463815783 418.5971517920865C198.39744033427885 416.6214465943117 214.52564603039988 370.75686164596755 230.6538517265209 370.3334962464443C246.7820574226419 369.91013084692116 262.91026311876294 414.08125419717265 279.03846881488397 416.05695939494746C295.166674511005 418.0326645927223 311.2948802071261 379.92977863563635 327.42308590324706 382.1877274330933C343.5512915993681 384.44567623055025 359.6794972954891 427.77006878175536 375.80770299161014 429.60465217968914C391.9359086877311 431.43923557762287 408.0641143838522 393.7597150200601 424.19232007997323 393.1952278206959C440.3205257760942 392.63074062133165 456.4487314722153 426.6410943830269 472.5769371683363 426.2177289835037C488.70514286445734 425.7943635839805 504.8333485605783 390.0905482241926 520.9615542566994 390.65503542355685C537.0897599528203 391.2195226229211 553.2179656489413 430.7336265784176 569.3461713450624 429.60465217968914C585.4743770411835 428.4756777809606 601.6025827373045 385.0101634299145 617.7307884334256 383.881189031186C633.8589941295465 382.75221463245754 649.9871998256676 419.4438825911329 666.1154055217886 422.8308057873183C682.2436112179097 426.2177289835037 706.4359197620911 407.3074078048018 714.5000226101516 404.2027282082985 " transform="rotate(29.75, 400, 400)"></path><path d="M104.00000043428864 418.30012445506355C111.58974429128676 412.45602168517496 134.35897586228114 383.36832835322963 149.53846357627742 383.23550783573216C164.71795129027367 383.1026873182347 179.89743900426993 419.36268859504327 195.07692671826618 417.5032013500787C210.25641443226243 415.6437141051142 225.4359021462587 372.47704591843734 240.61538986025496 372.07858436594495C255.79487757425122 371.6801228134525 270.97436528824744 413.2529447901598 286.15385300224375 415.1124320351243C301.33334071623995 416.97191928008885 316.51282843023625 381.1103795557727 331.69231614423256 383.23550783573216C346.87180385822876 385.36063611569165 362.051291572225 426.1365349874141 377.23077928622126 427.8632017148812C392.4102670002175 429.58986844234823 407.5897547142138 394.1267902705245 422.7692424282101 393.5955082005346C437.94873014220633 393.06422613054474 453.12821785620264 425.07397084743434 468.3077055701989 424.67550929494195C483.48719328419514 424.27704774244955 498.6666809981914 390.6734568155903 513.8461687121876 391.2047388855802C529.0256564261839 391.7360209555701 544.2051441401801 428.9257658548609 559.3846318541764 427.8632017148812C574.5641195681726 426.80063757490143 589.743607282169 385.8919181856815 604.9230949961652 384.8293540457018C620.1025827101614 383.766789905722 635.2820704241577 418.30012445506355 650.4615581381539 421.48781687500275C665.6410458521502 424.67550929494195 688.4102774231446 406.87755995028135 696.0000212801427 403.9555085653371 " transform="rotate(28, 400, 400)"></path><path d="M122.50000040714559 417.1563663189942C129.61538527308136 411.67751997222365 150.96153987088857 384.40780747352494 165.19230960276008 384.28328823837103C179.42307933463155 384.1587690032172 193.65384906650308 418.1525202002252 207.88461879837456 416.40925090807093C222.11538853024604 414.6659816159167 236.34615826211757 374.19723019090713 250.57692799398905 373.8236724854455C264.8076977258605 373.4501147799839 279.03846745773205 412.4246353831469 293.2692371896035 414.1679046753012C307.500006921475 415.91117396745545 321.73077665334654 382.290980475909 335.96154638521796 384.28328823837103C350.1923161170895 386.27559600083305 364.42308584896097 424.50300119307286 378.65385558083244 426.1217512500732C392.884625312704 427.7405013070736 407.11539504457545 394.49386552098883 421.346164776447 393.99578858037336C435.57693450831846 393.4977116397578 449.80770424019 423.50684731184185 464.03847397206147 423.13328960638023C478.2692437039329 422.7597319009186 492.5000134358044 391.2563654069881 506.7307831676759 391.7544423476036C520.9615528995474 392.2525192882191 535.1923226314188 427.11790513130427 549.4230923632904 426.1217512500732C563.6538620951619 425.12559736884225 577.8846318270334 386.7736729414486 592.1154015589049 385.77751906021757C606.3461712907763 384.78136517898656 620.5769410226478 417.1563663189942 634.8077107545193 420.1448279626872C649.0384804863908 423.13328960638023 670.3846350841981 406.4477120957609 677.5000199501338 403.70828892237563 " transform="rotate(26.25, 400, 400)"></path><path d="M141.00000038000255 416.0126100902735C147.64102625487592 410.89902016662097 167.564103879496 385.4472885011688 180.84615562924273 385.3310705483585C194.12820737898946 385.2148525955483 207.4102591287362 416.94235371275573 220.6923108784829 415.3153023734118C233.97436262822964 413.68825103406783 247.25641437797637 375.91741637072556 260.5384661277231 375.5687625122947C273.8205178774698 375.22010865386386 287.10256962721655 411.5963278834827 300.3846213769633 413.2233792228267C313.66667312671 414.85043056217063 326.9487248764567 383.471583303394 340.23077662620346 385.3310705483585C353.5128283759502 387.1905577933231 366.7948801256969 422.86946930608025 380.0769318754436 424.3803026926139C393.3589836251904 425.8911360791476 406.6410353749371 394.86094267880185 419.92308712468383 394.3960708675607C433.20513887443053 393.93119905631954 446.4871906241773 421.93972568359794 459.76924237392404 421.5910718251671C473.05129412367074 421.24241796673624 486.33334587341744 391.83927590573444 499.61539762316414 392.3041477169756C512.8974493729108 392.76901952821675 526.1795011226576 425.3100463150962 539.4615528724044 424.3803026926139C552.743604622151 423.45055907013165 566.0256563718979 387.65542960456423 579.3077081216446 386.7256859820819C592.5897598713913 385.7959423595997 605.871811621138 416.0126100902735 619.1538633708847 418.8018409577203C632.4359151206315 421.5910718251671 652.3589927452515 406.01786614858906 659.0000186201249 403.4610711867628 " transform="rotate(24.5, 400, 400)"></path><path d="M159.49998509407044 414.86885195420416C165.66665197788143 410.12051845366966 184.16665262931437 386.4867676214641 196.49998639693632 386.3788509509974C208.8333201645583 386.2709342805307 221.16665393218028 415.7321853179377 233.4999876998022 414.221351931404C245.83332146742418 412.7105185448703 258.16665523504616 377.63760064319536 270.4999890026681 377.3138506317953C282.83332277029007 376.9901006203952 295.166656537912 410.7680184764698 307.49999030553397 412.2788518630035C319.83332407315595 413.78968524953723 332.16665784077793 384.65218422353036 344.4999916083999 386.3788509509974C356.8333253760218 388.1055176784645 369.16665914364376 421.235935511739 381.49999291126574 422.63885222780596C393.8333266788877 424.04176894387297 406.1666604465097 395.2280179292662 418.4999942141316 394.7963512473994C430.8333279817536 394.3646845655326 443.1666617493756 420.37260214800546 455.49999551699756 420.0488521366054C467.8333292846195 419.7251021252053 480.16666305224146 392.4221844971322 492.4999968198634 392.8538511789989C504.83333058748536 393.2855178608657 517.1666643551073 423.5021855915395 529.4999981227293 422.63885222780596C541.8333318903512 421.7755188640724 554.1666656579732 388.53718436033125 566.4999994255952 387.6738509965977C578.8333331932172 386.81051763286416 591.166666960839 414.86885195420416 603.500000728461 417.45885204540474C615.8333344960829 420.0488521366054 634.333335147516 405.5880182940686 640.5000020313269 403.2138515438014 " transform="rotate(22.75, 400, 400)"></path><path d="M177.99998506692742 413.72509381813484C183.69229295967602 409.3420167407184 200.7692166379218 387.5262467417594 212.15383242341898 387.4266313536363C223.53844820891618 387.32701596551317 234.92306399441338 414.5220169231196 246.3076797799106 413.1274014893962C257.6922955654078 411.7327860556728 269.076911350905 379.35778491566515 280.4615271364022 379.05893875129584C291.84614292189934 378.76009258692653 303.23075870739655 409.93970906945697 314.6153744928937 411.33432450318037C325.9999902783909 412.7289399369038 337.38460606388816 385.8327851436667 348.76922184938536 387.4266313536363C360.1538376348825 389.0204775636059 371.5384534203797 419.60240171739775 382.9230692058769 420.897401762998C394.3076849913741 422.19240180859833 405.6923007768713 395.5950931797305 417.0769165623685 395.1966316272381C428.46153234786567 394.7981700747457 439.84614813336293 418.8054786124129 451.2307639188601 418.50663244804366C462.6153797043573 418.20778628367435 473.9999954898545 393.0050930885299 485.38461127535163 393.4035546410223C496.76922706084883 393.8020161935147 508.15384284634604 421.69432486798286 519.5384586318432 420.897401762998C530.9230744173404 420.10047865801323 542.3076902028376 389.4189391160983 553.6923059883349 388.6220160111135C565.076921773832 387.8250929061287 576.4615375593291 413.72509381813484 587.8461533448265 416.1158631330892C599.2307691303237 418.50663244804366 616.3076928085694 405.15817043954814 622.000000701318 402.96663190083996 " transform="rotate(21, 400, 400)"></path><path d="M196.49998503978438 412.58133568206546C201.7179339414706 408.5635150277671 217.37178064652923 388.56572586205465 227.80767844990166 388.4744117562752C238.24357625327409 388.38309765049564 248.67947405664654 413.31184852830154 259.11537186001897 412.03345104738844C269.5512696633914 410.7550535664753 279.9871674667638 381.07796918813494 290.42306527013625 380.8040268707964C300.8589630735087 380.53008455345787 311.2948608768811 409.1113996624441 321.73075868025353 410.38979714335727C332.16665648362596 411.66819462427037 342.6025542869984 387.013386063803 353.0384520903708 388.4744117562752C363.47434989374324 389.9354374487473 373.91024769711566 417.9688679230565 384.3461455004881 419.1559512981901C394.7820433038605 420.3430346733237 405.21794110723295 395.9621684301949 415.6538389106054 395.59691200707687C426.0897367139778 395.2316555839588 436.5256345173502 417.2383550768204 446.96153232072265 416.9644127594819C457.3974301240951 416.69047044214335 467.8333279274675 393.58800167992763 478.26922573083993 393.9532581030457C488.70512353421236 394.3185145261637 499.1410213375848 419.88646414442616 509.5769191409572 419.1559512981901C520.0128169443296 418.425438451954 530.4487147477021 390.30069387186535 540.8846125510745 389.57018102562927C551.3205103544469 388.8396681793932 561.7564081578194 412.58133568206546 572.1923059611918 414.7728742207737C582.6282037645642 416.9644127594819 598.2820504696228 404.72832258502774 603.4999993713091 402.7194122578785 " transform="rotate(19.25, 400, 400)"></path><path d="M214.99998501264133 411.43757945334477C219.74357492326516 407.7850152221644 233.97434465513666 389.6052068896986 243.4615244763843 389.52219406626267C252.948704297632 389.43918124282675 262.43588411887964 412.1016820408321 271.9230639401273 410.93950251272923C281.410243761375 409.77732298462644 290.89742358262265 382.79815536795337 300.3846034038703 382.5491168976456C309.87178322511795 382.3000784273379 319.3589630463656 408.2830921627799 328.84614286761325 409.44527169088275C338.3333226888609 410.6074512189856 347.8205025101086 388.193988891288 357.30768233135626 389.52219406626267C366.7948621526039 390.8503992412373 376.2820419738516 416.3353360360639 385.76922179509927 417.41450274073077C395.2564016163469 418.4936694453977 404.74358143759457 396.32924558800784 414.2307612588422 395.9971942942642C423.7179410800899 395.6651430005205 433.2051209013376 415.6712334485765 442.69230072258523 415.42219497826875C452.1794805438329 415.17315650796104 461.6666603650806 394.17091217867403 471.1538401863282 394.50296347241766C480.64102000757583 394.83501476616135 490.12819982882354 418.07860532821815 499.6153796500712 417.41450274073077C509.10255947131884 416.75040015324345 518.5897392925665 391.182450534981 528.0769191138143 390.5183479474937C537.5640989350618 389.8542453600063 547.0512787563096 411.43757945334477 556.5384585775571 413.4298872158068C566.0256383988049 415.42219497826875 580.2564081306764 404.2984766378559 584.9999980413002 402.47219452226574 " transform="rotate(17.5, 400, 400)"></path><path d="M233.4999849854983 410.2938203636011C237.76921590505975 407.0065125555388 250.5769086637441 390.64468505631953 259.115370502867 390.5699735152272C267.65383234198987 390.4952619741349 276.19229418111274 410.8915126923397 284.7307560202357 409.84555111704714C293.26921785935855 408.7995895417546 301.8076796984815 384.51833868674885 310.34614153760435 384.2942040634719C318.8846033767272 384.0700694401949 327.42306521585016 407.4547818020927 335.96152705497303 408.5007433773853C344.49998889409596 409.5467049526778 353.03845073321884 389.37458885775004 361.5769125723417 390.5699735152272C370.11537441146464 391.7653581727044 378.6538362505875 414.70180128804833 387.19229808971045 415.6730513222485C395.7307599288333 416.64430135644875 404.2692217679562 396.6963198847979 412.8076836070791 396.3974737204286C421.346145446202 396.0986275560593 429.88460728532493 414.1041089593097 438.4230691244478 413.8799743360327C446.9615309635707 413.6558397127557 455.4999928026936 394.7538198163974 464.0384546418165 395.05266598076673C472.57691648093936 395.35151214513604 481.1153783200623 416.27074365098713 489.65384015918517 415.6730513222485C498.19230199830804 415.0753589935099 506.73076383743097 392.0642043370737 515.2692256765538 391.46651200833514C523.8076875156768 390.8688196795965 532.3461493547996 410.2938203636011 540.8846111939225 412.0868973498169C549.4230730330454 413.8799743360327 562.2307657917297 403.86862782966114 566.4999967112913 402.22497392562997 " transform="rotate(15.75, 400, 400)"></path><path d="M252.0000002171443 409.15006222753175C255.79487214564338 406.2280108425875 267.17948793114056 391.68416417661484 274.7692317881387 391.6177539178661C282.35897564513687 391.5513436591174 289.94871950213496 409.68134429752166 297.53846335913306 408.75160067503936C305.1282072161312 407.8218570525571 312.71795107312937 386.23852295921864 320.30769493012747 386.0392921829725C327.8974387871256 385.84006140672625 335.4871826441237 406.6264723950799 343.0769265011219 407.5562160175622C350.66667035812 408.4859596400444 358.2564142151181 390.55518977788637 365.8461580721163 391.6177539178661C373.4359019291144 392.68031805784585 381.0256457861125 413.068267493707 388.61538964311063 413.93160085744057C396.2051335001088 414.7949342211741 403.7948773571069 397.0633951352622 411.38462121410504 396.7977541002673C418.9743650711032 396.53211306527237 426.5641089281013 412.53698542371717 434.15385278509945 412.337754647471C441.7435966420976 412.1385238712248 449.3333404990957 395.3367284077952 456.9230843560938 395.6023694427901C464.51282821309195 395.86801047778505 472.10257207009005 414.4628829274305 479.6923159270882 413.93160085744057C487.2820597840863 413.4003187874507 494.8718036410845 392.9459590928408 502.4615474980826 392.41467702285087C510.0512913550807 391.883394952861 517.6410352120788 409.15006222753175 525.230779069077 410.7439084375014C532.8205229260751 412.337754647471 544.2051387115723 403.4387799751407 548.0000106400714 401.9777542826685 " transform="rotate(14, 400, 400)"></path><path d="M270.5000001900013 408.0063040914624C273.82051312743795 405.44950912963617 283.782051939748 392.7236432969101 290.42307781462137 392.66553432050495C297.06410368949474 392.6074253440998 303.7051295643681 408.4711759027036 310.34615543924144 407.6576502330316C316.9871813141148 406.84412456335957 323.6282071889882 387.95870723168844 330.2692330638615 387.78438030247304C336.9102589387349 387.6100533732576 343.5512848136083 405.798162988067 350.19231068848165 406.611688657739C356.83333656335503 407.425214327411 363.47436243822835 391.7357906980227 370.11538831310173 392.66553432050495C376.7564141879751 393.59527794298725 383.39744006284843 411.4347336993658 390.0384659377218 412.19015039263263C396.6794918125952 412.9455670858995 403.3205176874685 397.4304703857266 409.96154356234194 397.198034480106C416.60256943721527 396.96559857448545 423.24359531208864 410.9698618881247 429.884621186962 410.79553495890923C436.52564706183534 410.62120802969383 443.1666729367087 395.9196369991929 449.8076988115821 396.15207290481345C456.4487246864554 396.38450881043406 463.0897505613288 412.6550222038738 469.7307764362022 412.19015039263263C476.3718023110755 411.72527858139154 483.01282818594893 393.8277138486078 489.6538540608223 393.36284203736665C496.29487993569563 392.8979702261255 502.935905810569 408.0063040914624 509.57693168544233 409.4009195251858C516.2179575603158 410.79553495890923 526.1794963726257 403.0089321206202 529.5000093100625 401.7305346397071 " transform="rotate(12.25, 400, 400)"></path><path d="M289.0000001628582 406.86254786274174C291.84615410923254 404.6710093240335 300.3846159483554 393.763124324554 306.076923841104 393.71331663049244C311.7692317338526 393.6635089364309 317.4615396266012 407.2610094152341 323.1538475193498 406.5637016983724C328.8461554120984 405.8663939815107 334.538463304847 389.6788934115069 340.23077119759563 389.52947032932224C345.92307909034423 389.3800472471376 351.6153869830928 404.9698554884028 357.3076948758414 405.6671632052645C363.00000276859 406.3644709221262 368.69231066133864 392.91639352550766 374.3846185540872 393.71331663049244C380.0769264468358 394.5102397354773 385.7692343395844 409.80120181237317 391.461542232333 410.4487018351733C397.1538501250816 411.0962018579735 402.8461580178302 397.79754754353957 408.5384659105788 397.5983167672934C414.23077380332734 397.3990859910472 419.923081696076 409.4027402598808 425.61538958882454 409.25331717769615C431.3076974815732 409.10389409551146 437.00000537432174 396.50254749793925 442.69231326707035 396.7017782741855C448.38462115981895 396.9010090504317 454.07692905256755 410.8471633876657 459.76923694531615 410.4487018351733C465.46154483806475 410.05024028268093 471.15385273081336 394.70947051172345 476.84616062356196 394.31100895923106C482.53846851631056 393.91254740673867 488.2307764090591 406.86254786274174 493.92308430180776 408.0579325202189C499.61539219455636 409.25331717769615 508.15385403367924 402.5790861734484 511.0000079800535 401.4833169040943 " transform="rotate(10.5, 400, 400)"></path><path d="M307.49999250632067 405.71878877299804C309.8717874616326 403.89250665740786 316.9871723275683 394.802602491175 321.73076223819214 394.761096079457C326.474352148816 394.71958966773906 331.2179420594398 406.0508400667417 335.9615319700637 405.46975030269033C340.7051218806875 404.8886605386389 345.4487117913113 391.3990767303024 350.19230170193515 391.2745574951485C354.935891612559 391.15003825999463 359.6794815231828 404.14154512771563 364.4230714338066 404.7226348917671C369.16666134443045 405.3037246558185 373.9102512550543 394.09699349196967 378.65384116567816 394.761096079457C383.3974310763019 395.42519866694437 388.1410209869258 408.1676670643576 392.88461089754963 408.70725041669107C397.62820080817346 409.24683376902453 402.3717907187973 398.16462184032963 407.1153806294211 397.9985961934578C411.85897054004494 397.83257054658594 416.60256045066876 407.83561577061397 421.34615036129264 407.71109653546006C426.0897402719164 407.5865773003062 430.8333301825403 397.0854551356627 435.57692009316406 397.25148078253454C440.32051000378794 397.41750642940633 445.06409991441177 409.03930171043476 449.8076898250356 408.70725041669107C454.5512797356594 408.3751991229474 459.29486964628325 395.59122431381616 464.0384595569071 395.2591730200725C468.7820494675309 394.92712172632883 473.5256393781548 405.71878877299804 478.26922928877855 406.71494265422905C483.01281919940243 407.71109653546006 490.1282040653382 402.1492373652536 492.4999990206501 401.2360963074585 " transform="rotate(8.75, 400, 400)"></path><path d="M325.99999247917765 404.5750311137659C327.89742844342715 403.11400542129377 333.58973633617575 395.8420820883074 337.38460826467485 395.80887695893307C341.1794801931739 395.7756718295587 344.97435212167295 404.8406721487608 348.769224050172 404.3758003375197C352.56409597867105 403.91092852627855 356.35896790717015 393.11926147960935 360.1538398356692 393.0196460914862C363.94871176416825 392.9200307033631 367.74358369266736 403.31323619753994 371.5384556211664 403.7781080087811C375.33332754966546 404.24297982002224 379.12819947816456 395.27759488894316 382.9230714066636 395.80887695893307C386.71794333516266 396.3401590289229 390.5128152636617 406.5341337468535 394.30768719216076 406.9658004287203C398.10255912065986 407.39746711058706 401.8974310491589 398.5316975676311 405.69230297765796 398.39887705013365C409.48717490615707 398.2660565326362 413.2820468346561 406.2684927118586 417.07691876315516 406.1688773237355C420.87179069165427 406.0692619356124 424.6666626201533 397.66836420389757 428.46153454865237 397.80118472139503C432.2564064771515 397.9340052388925 436.05127840565046 407.2314414637152 439.84615033414957 406.9658004287203C443.6410222626486 406.70015939372536 447.4358941911477 396.4729795464204 451.2307661196468 396.20733851142546C455.0256380481458 395.94169747643053 458.82050997664487 404.5750311137659 462.615381905144 405.3719542187507C466.410253833643 406.1688773237355 472.1025617263916 401.71938998757037 473.9999976906412 400.9888771413343 " transform="rotate(7, 400, 400)"></path><path d="M344.4999924520346 403.4312734545337C345.92306942522174 402.3355041851796 350.1923003447832 396.88156168543986 353.03845429115745 396.8566578384091C355.8846082375318 396.8317539913783 358.7307621839061 403.6305042307799 361.5769161302804 403.281850372349C364.42307007665465 402.9331965139182 367.269224023029 394.8394462289163 370.1153779694033 394.764734687824C372.9615319157776 394.6900231467316 375.80768586215186 402.48492726736424 378.6538398085262 402.8335811257951C381.49999375490046 403.18223498422594 384.3461477012748 396.45819628591664 387.19230164764906 396.8566578384091C390.0384555940234 397.2551193909015 392.88460954039766 404.9006004293494 395.73076348677193 405.2243504407495C398.57691743314626 405.5481004521496 401.4230713795206 398.89877329493265 404.26922532589487 398.7991579068095C407.11537927226914 398.6995425186864 409.96153321864347 404.70136965310326 412.80768716501774 404.6266581120109C415.65384111139207 404.5519465709186 418.49999505776634 398.2512732721325 421.34614900414067 398.3508886602556C424.19230295051494 398.45050404837866 427.0384568968892 405.42358121699573 429.88461084326354 405.2243504407495C432.7307647896379 405.02511966450334 435.57691873601215 397.35473477902457 438.4230726823864 397.15550400277834C441.26922662876075 396.9562732265322 444.115380575135 403.4312734545337 446.96153452150935 404.0289657832723C449.8076884678836 404.6266581120109 454.07691938744506 401.28954260988706 455.4999963606322 400.74165797521 " transform="rotate(5.25, 400, 400)"></path><path d="M363.0000000542861 402.2875162721387C363.94871803641087 401.5570034259026 366.79487198278514 397.92104175940943 368.6923079470347 397.9044391947223C370.5897439112842 397.88783663003505 372.48717987553374 402.42033678963617 374.3846158397833 402.18790088401556C376.2820518040328 401.955464978395 378.17948776828234 396.5596314550604 380.0769237325319 396.50982376099887C381.9743596967814 396.4600160669373 383.87179566103094 401.6566188140257 385.76923162528044 401.88905471964625C387.66666758953 402.12149062526686 389.56410355377955 397.63879815972734 391.4615395180291 397.9044391947223C393.3589754822786 398.1700802297172 395.2564114465281 403.2670675886825 397.15384741077764 403.4829009296159C399.0512833750272 403.69873427054927 400.94871933927675 399.2658494990713 402.84615530352625 399.1994392403226C404.7435912677758 399.13302898157383 406.6410272320253 403.13424707118503 408.53846319627485 403.0844393771235C410.4358991605244 403.03463168306195 412.33333512477395 398.8341828172045 414.23077108902345 398.9005930759533C416.128207053273 398.967003334702 418.0256430175225 403.61572144711334 419.92307898177205 403.4829009296159C421.8205149460216 403.3500804121184 423.71795091027116 398.2364904884659 425.61538687452065 398.10366997096844C427.51282283877015 397.970849453471 429.4102588030197 402.2875162721387 431.30769476726925 402.6859778246311C433.2051307315188 403.0844393771235 436.0512846778931 400.8596957090409 437.00000266001786 400.49443928592285 " transform="rotate(3.5, 400, 400)"></path><path d="M381.4999981197944 401.143757182395C381.9743571108568 400.778500759277 383.39743408404394 398.96051992603043 384.3461520661687 398.9522186436868C385.2948700482935 398.9439173613432 386.2435880304182 401.21016744114377 387.192306012543 401.09394948833346C388.14102399466776 400.97773153552316 389.08974197679254 398.2798147738559 390.0384599589173 398.2549109268251C390.9871779410421 398.23000707979435 391.93589592316687 400.82830845333854 392.8846139052916 400.94452640614884C393.83333188741636 401.0607443589591 394.78204986954114 398.81939812618936 395.7307678516659 398.9522186436868C396.67948583379064 399.0850391611843 397.6282038159154 401.63353284066693 398.5769217980402 401.7414495111336C399.52563978016497 401.8493661816003 400.47435776228974 399.63292379586136 401.4230757444145 399.599718666487C402.3717937265393 399.5665135371126 403.320511708664 401.56712258191817 404.2692296907888 401.5422187348874C405.21794767291357 401.5173148878566 406.16666565503834 399.417090454928 407.11538363716306 399.4502955843023C408.06410161928784 399.4835007136767 409.0128196014126 401.8078597698824 409.9615375835374 401.7414495111336C410.91025556566217 401.67503925238486 411.85897354778695 399.11824429055866 412.8076915299117 399.0518340318099C413.75640951203644 398.9854237730612 414.7051274941612 401.143757182395 415.653845476286 401.34298795864123C416.60256345841077 401.5422187348874 418.02564043159794 400.42984690084614 418.49999942266027 400.24721868928714 " transform="rotate(1.75, 400, 400)"></path></g></svg>