<?xml version="1.0" encoding="UTF-8"?>
<!-- Created with Inkscape (http://www.inkscape.org/) -->
<svg width="73.433mm" height="3.109mm" version="1.1" viewBox="0 0 73.433 3.109" xmlns="http://www.w3.org/2000/svg">
 <g transform="translate(-125.3 -89.265)">
  <g class="tp-slogan" transform="matrix(.26458 0 0 .26458 125.3 89.267)" fill="#fdf3eb" fill-rule="" data-gra="path-slogan">
   <rect y="5.3752" width="68.825" height="1"/>
   <rect x="208.72" y="5.3752" width="68.825" height="1"/>
   <g transform="translate(71.825)">
    <g transform="scale(1.44)">
     <path transform="translate(-.504 8.016)" d="m0.5-1.02 0.6-0.7q0.42 0.45 0.99 0.72t1.19 0.27q0.78 0 1.21-0.36 0.43-0.35 0.43-0.93 0-0.3-0.1-0.51t-0.28-0.36q-0.17-0.15-0.41-0.27t-0.52-0.25l-1.13-0.49q-0.27-0.12-0.56-0.29t-0.52-0.41q-0.22-0.24-0.37-0.57-0.14-0.33-0.14-0.76 0-0.44 0.18-0.83 0.19-0.38 0.52-0.66t0.78-0.44 0.99-0.16q0.71 0 1.31 0.27t1.02 0.71l-0.54 0.64q-0.36-0.34-0.8-0.54t-0.99-0.2q-0.66 0-1.06 0.31-0.4 0.3-0.4 0.84 0 0.29 0.11 0.49t0.31 0.35q0.19 0.15 0.42 0.26 0.22 0.11 0.46 0.21l1.12 0.48q0.34 0.14 0.64 0.33t0.51 0.43q0.22 0.25 0.34 0.58 0.13 0.33 0.13 0.76 0 0.47-0.19 0.88-0.18 0.4-0.53 0.71t-0.84 0.48-1.12 0.17q-0.82 0-1.53-0.31t-1.23-0.85zm7.99 1.02v-7.87h4.53v0.84h-3.54v2.47h2.99v0.85h-2.99v2.86h3.66v0.85zm8.31-3.2h2.36l-0.37-1.2q-0.22-0.66-0.41-1.32-0.19-0.65-0.38-1.34h-0.05q-0.18 0.69-0.37 1.34-0.2 0.66-0.41 1.32zm3.36 3.2-0.75-2.4h-2.87l-0.75 2.4h-1.02l2.66-7.87h1.13l2.66 7.87zm4.18-7.07v2.93h1.32q0.92 0 1.41-0.38t0.49-1.14q0-0.78-0.49-1.1-0.49-0.31-1.41-0.31zm4.45 7.07h-1.13l-1.9-3.32h-1.42v3.32h-1v-7.87h2.46q0.6 0 1.11 0.11 0.51 0.12 0.88 0.38 0.36 0.26 0.57 0.68 0.2 0.42 0.2 1.04 0 0.92-0.48 1.47t-1.28 0.76zm2.07-3.94q0-0.94 0.26-1.7t0.73-1.28q0.47-0.53 1.11-0.81 0.64-0.29 1.4-0.29 0.72 0 1.26 0.3 0.54 0.29 0.89 0.68l-0.57 0.63q-0.31-0.33-0.69-0.53-0.37-0.2-0.88-0.2-0.56 0-1.02 0.22-0.45 0.22-0.78 0.64-0.32 0.41-0.5 1t-0.18 1.32q0 0.74 0.17 1.34 0.18 0.59 0.49 1.01t0.76 0.65 1.01 0.23q0.58 0 1.01-0.23 0.42-0.23 0.81-0.65l0.56 0.61q-0.47 0.54-1.06 0.84-0.58 0.3-1.34 0.3-0.74 0-1.37-0.27-0.63-0.28-1.1-0.8-0.46-0.52-0.72-1.28-0.25-0.77-0.25-1.73zm8.3 3.94v-7.87h1v3.3h3.66v-3.3h1.01v7.87h-1.01v-3.71h-3.66v3.71zm12.25 0v-7.87h4.54v0.84h-3.54v2.47h2.99v0.85h-2.99v2.86h3.66v0.85zm7.33 0v-7.87h1.03l2.84 4.94 0.85 1.63h0.05q-0.03-0.6-0.08-1.24-0.04-0.64-0.04-1.26v-4.07h0.95v7.87h-1.03l-2.86-4.96-0.85-1.62h-0.05q0.05 0.6 0.09 1.22t0.04 1.24v4.12zm8.3-3.94q0-0.94 0.27-1.7t0.76-1.28q0.49-0.53 1.15-0.81 0.66-0.29 1.45-0.29 0.81 0 1.36 0.31t0.89 0.67l-0.56 0.63q-0.3-0.31-0.69-0.52t-0.99-0.21-1.08 0.22-0.82 0.64q-0.33 0.41-0.52 1-0.18 0.59-0.18 1.32 0 0.74 0.17 1.34 0.17 0.59 0.5 1.01t0.82 0.65 1.12 0.23q0.42 0 0.8-0.13 0.38-0.12 0.62-0.34v-2.05h-1.67v-0.83h2.58v3.31q-0.38 0.4-1.01 0.66-0.63 0.25-1.43 0.25-0.78 0-1.42-0.27-0.65-0.28-1.12-0.8t-0.73-1.28q-0.27-0.77-0.27-1.73zm8.86 3.94v-7.87h1v7.87zm4.16 0v-7.87h1.03l2.85 4.94 0.85 1.63h0.05q-0.04-0.6-0.08-1.24t-0.04-1.26v-4.07h0.94v7.87h-1.03l-2.85-4.96-0.86-1.62h-0.04q0.04 0.6 0.09 1.22 0.04 0.62 0.04 1.24v4.12zm8.76 0v-7.87h4.54v0.84h-3.54v2.47h2.99v0.85h-2.99v2.86h3.66v0.85z"/>
    </g>
   </g>
  </g>
 </g>
</svg>
